<?xml version="1.0" encoding="UTF-8" standalone="no"?>
<!-- Created with Inkscape (http://www.inkscape.org/) -->

<svg
   width="10"
   height="10"
   viewBox="0 0 10 10"
   version="1.1"
   id="svg5"
   xml:space="preserve"
   inkscape:version="1.2.1 (9c6d41e410, 2022-07-14)"
   sodipodi:docname="awesomewm.svg"
   inkscape:export-filename="awesomewm.png"
   inkscape:export-xdpi="96"
   inkscape:export-ydpi="96"
   xmlns:inkscape="http://www.inkscape.org/namespaces/inkscape"
   xmlns:sodipodi="http://sodipodi.sourceforge.net/DTD/sodipodi-0.dtd"
   xmlns:xlink="http://www.w3.org/1999/xlink"
   xmlns="http://www.w3.org/2000/svg"
   xmlns:svg="http://www.w3.org/2000/svg"><sodipodi:namedview
     id="namedview7"
     pagecolor="#505050"
     bordercolor="#ffffff"
     borderopacity="1"
     inkscape:showpageshadow="0"
     inkscape:pageopacity="0"
     inkscape:pagecheckerboard="1"
     inkscape:deskcolor="#505050"
     inkscape:document-units="px"
     showgrid="false"
     inkscape:zoom="11.313708"
     inkscape:cx="1479.4"
     inkscape:cy="267.90508"
     inkscape:window-width="1366"
     inkscape:window-height="707"
     inkscape:window-x="1280"
     inkscape:window-y="40"
     inkscape:window-maximized="0"
     inkscape:current-layer="layer1"
     showguides="false"><sodipodi:guide
       position="-1433.7462,241.90253"
       orientation="1,0"
       id="guide6972"
       inkscape:locked="false" /><sodipodi:guide
       position="-1401.7462,241.90253"
       orientation="1,0"
       id="guide6974"
       inkscape:locked="false" /><sodipodi:guide
       position="-1257.7462,241.90253"
       orientation="1,0"
       id="guide6978"
       inkscape:locked="false" /><sodipodi:guide
       position="-1273.7462,241.90253"
       orientation="1,0"
       id="guide7003"
       inkscape:locked="false" /><sodipodi:guide
       position="-264.04624,241.90253"
       orientation="1,0"
       id="guide13821"
       inkscape:locked="false" /><sodipodi:guide
       position="-136.04624,241.90253"
       orientation="1,0"
       id="guide13823"
       inkscape:locked="false" /><sodipodi:guide
       position="-280.04624,241.90253"
       orientation="1,0"
       id="guide13923"
       inkscape:locked="false" /></sodipodi:namedview><defs
     id="defs2" /><g
     inkscape:label="Layer 1"
     inkscape:groupmode="layer"
     id="layer1"
     transform="translate(-1467.8962,-257.90253)"><path
       d="m 1479.3247,257.90205 c -0.8035,0 -1.4285,0.64732 -1.4285,1.42857 v 7.14288 c 0,0.80357 0.625,1.42858 1.4285,1.42858 h 7.1429 c 0.7812,0 1.4286,-0.62501 1.4286,-1.42858 v -7.14288 c 0,-0.78125 -0.6474,-1.42857 -1.4286,-1.42857 z m 1.7634,3.19197 c 0.2009,-0.20089 0.5358,-0.20089 0.7367,0 l 1.0491,1.04911 1.0491,-1.04911 c 0.2232,-0.20089 0.558,-0.20089 0.7589,0 0.2232,0.22321 0.2232,0.55803 0,0.75893 l -1.049,1.04911 1.049,1.04911 c 0.2232,0.22322 0.2232,0.55804 0,0.75893 -0.2009,0.22322 -0.5357,0.22322 -0.7589,0 l -1.0491,-1.04911 -1.0491,1.04911 c -0.2009,0.22322 -0.5358,0.22322 -0.7367,0 -0.2232,-0.20089 -0.2232,-0.53571 0,-0.75893 l 1.0492,-1.04911 -1.0492,-1.04911 c -0.2232,-0.2009 -0.2232,-0.53572 0,-0.75893 z"
       id="path684"
       style="font-size:13.3333px;font-family:FontAwesome;-inkscape-font-specification:FontAwesome;text-align:center;text-anchor:middle;fill:#73b7f2;fill-opacity:1;stroke-width:0.857148"
       inkscape:export-filename="../../../.config/awesome/theme/assets/titlebar/close.png"
       inkscape:export-xdpi="96"
       inkscape:export-ydpi="96" /><path
       id="path691"
       style="font-size:13.3333px;font-family:FontAwesome;-inkscape-font-specification:FontAwesome;text-align:center;text-anchor:middle;fill:#73b7f2;fill-opacity:1;stroke-width:0.857192"
       d="m 1469.3243,257.90252 c -0.8036,0 -1.4281,0.6468 -1.4281,1.4281 v 7.14382 c 0,0.80362 0.6245,1.4281 1.4281,1.4281 h 7.1438 c 0.7813,0 1.4281,-0.62448 1.4281,-1.4281 v -7.14382 c 0,-0.7813 -0.6468,-1.4281 -1.4281,-1.4281 z m -0.3566,4.28596 h 7.857 v 4.28596 c 0,0.2009 -0.178,0.35661 -0.3566,0.35661 h -7.1438 c -0.2009,0 -0.3566,-0.15571 -0.3566,-0.35661 z"
       inkscape:export-filename="../../../.config/awesome/theme/assets/titlebar/maximized_inactive.png"
       inkscape:export-xdpi="96"
       inkscape:export-ydpi="96" /><use
       x="0"
       y="0"
       xlink:href="#path684"
       id="use928"
       inkscape:export-filename="../../../.config/awesome/theme/assets/titlebar/close.svg"
       inkscape:export-xdpi="96"
       inkscape:export-ydpi="96" /></g></svg>
